<svg version="1.1" viewBox="0 0 1200 800" xmlns="http://www.w3.org/2000/svg">
 <g transform="translate(2.406 1.203)">
  <path d="m0 657.58v-142.42l8.0379-10.327c25.064-32.202 46.53-51.821 64.746-59.177 20.351-8.218 47.5-10.11 72.716-5.0684 13.394 2.6781 37.173 11.145 53 18.872 38.419 18.756 72.243 42.986 128.5 92.051 18.603 16.225 29.793 25.328 33.5 27.252 5.3241 2.7636 15.847 5.4123 23.584 5.9364 34.329 2.3254 69.681-25.206 116.2-90.5 5.7582-8.0814 25.758-37.643 44.445-65.693 44.47-66.754 62.581-91.965 86.197-119.99 46.598-55.306 90.564-85.95 138.81-96.753 13.389-2.9978 46.779-3.2194 61.259-0.40653 46.196 8.9742 95.641 34.289 145.35 74.414 35.643 28.773 80.764 74.283 117.23 118.24 30.844 37.182 64.019 81.621 93.631 125.42l12.793 18.923v251.65h-1200zm332.99-254.45c-10.799-3.4566-19.65-10.272-26.509-20.411-10.216-15.102-10.216-38.332 0-53.434 9.9623-14.726 23.929-22.341 41.021-22.366 27.552-0.0402 48.717 21.284 48.717 49.083 0 22.049-13.493 40.676-34.072 47.036-8.1673 2.5241-21.428 2.5662-29.156 0.0925z" fill="#f0f2f4"/>
  <path d="m444 559.62c0-0.20765 0.7875-0.99515 1.75-1.75 1.5861-1.2439 1.6214-1.2085 0.37756 0.37756-1.3064 1.6658-2.1276 2.1955-2.1276 1.3724zm-421-74c0-0.20765 0.7875-0.99515 1.75-1.75 1.5861-1.2439 1.6214-1.2085 0.37756 0.37756-1.3064 1.6658-2.1276 2.1955-2.1276 1.3724zm88.269-48.315c0.97297-0.25354 2.323-0.23687 3 0.0371 0.67703 0.27393-0.11903 0.48137-1.769 0.46099-1.65-0.0204-2.2039-0.2445-1.231-0.49804zm7.481 0.0307c0.6875-0.27741 1.8125-0.27741 2.5 0s0.125 0.50439-1.25 0.50439-1.9375-0.22698-1.25-0.50439zm228.06-32.021c0.72187-0.28887 1.5844-0.25335 1.9167 0.0789 0.33229 0.33229-0.25834 0.56864-1.3125 0.52522-1.165-0.048-1.4019-0.28494-0.60417-0.60416zm719.06-33.067c-1.2438-1.5861-1.2085-1.6214 0.3776-0.37756 1.6657 1.3064 2.1955 2.1276 1.3724 2.1276-0.2076 0-0.9951-0.7875-1.75-1.75zm-10-11c-1.2438-1.5861-1.2085-1.6214 0.3776-0.37756 1.6657 1.3064 2.1955 2.1276 1.3724 2.1276-0.2076 0-0.9951-0.7875-1.75-1.75zm-24.89-26-10.482-10.75 10.75 10.482c5.9125 5.7652 10.75 10.603 10.75 10.75 0 0.72221-1.2818-0.4973-11.018-10.482zm-716.98-15.628c0-0.20765 0.7875-0.99515 1.75-1.75 1.5861-1.2439 1.6214-1.2085 0.37756 0.37756-1.3064 1.6658-2.1276 2.1955-2.1276 1.3724zm691.87-8.3724c-1.2438-1.5861-1.2085-1.6214 0.3776-0.37756 1.6657 1.3064 2.1955 2.1276 1.3724 2.1276-0.2076 0-0.9951-0.7875-1.75-1.75zm-358.37-22.25c0.99549-1.1 2.035-2 2.31-2s-0.31449 0.9-1.31 2-2.035 2-2.31 2 0.31449-0.9 1.31-2zm18.5-18.378c0-0.20765 0.7875-0.99515 1.75-1.75 1.5861-1.2439 1.6214-1.2085 0.37756 0.37756-1.3064 1.6658-2.1276 2.1955-2.1276 1.3724zm135.81-62.306c0.72187-0.28887 1.5844-0.25335 1.9167 0.0789 0.33229 0.33229-0.25834 0.56864-1.3125 0.52522-1.165-0.048-1.4019-0.28494-0.60417-0.60416z" fill="#eceef1"/>
  <path d="m36 471.5c1.2917-1.375 2.5736-2.5 2.8486-2.5s-0.55688 1.125-1.8486 2.5-2.5736 2.5-2.8486 2.5 0.55688-1.125 1.8486-2.5zm762.81-263.18c0.72187-0.28887 1.5844-0.25335 1.9167 0.0789 0.33229 0.33229-0.25834 0.56864-1.3125 0.52522-1.165-0.048-1.4019-0.28494-0.60417-0.60416z" fill="#e8ecee"/>
  <path d="m460 543.62c0-0.20765 0.7875-0.99515 1.75-1.75 1.5861-1.2439 1.6214-1.2085 0.37756 0.37756-1.3064 1.6658-2.1276 2.1955-2.1276 1.3724zm-428.5-67.622c0.99549-1.1 2.035-2 2.31-2s-0.31449 0.9-1.31 2-2.035 2-2.31 2 0.31449-0.9 1.31-2zm1013.4-126.75c-1.2438-1.5861-1.2085-1.6214 0.3776-0.37756 1.6657 1.3064 2.1955 2.1276 1.3724 2.1276-0.2076 0-0.9951-0.7875-1.75-1.75zm-28-28c-1.2438-1.5861-1.2085-1.6214 0.3776-0.37756 0.9625 0.75485 1.75 1.5424 1.75 1.75 0 0.82304-0.8212 0.29331-2.1276-1.3724zm-222.12-112.91c0.6875-0.27741 1.8125-0.27741 2.5 0s0.125 0.50439-1.25 0.50439-1.9375-0.22698-1.25-0.50439z" fill="#e4e8ec"/>
  <path d="m390.81 584.32c0.72187-0.28887 1.5844-0.25335 1.9167 0.0789 0.33229 0.33229-0.25834 0.56864-1.3125 0.52522-1.165-0.048-1.4019-0.28494-0.60417-0.60416zm63.146-34.567c4.144-4.4152 5.0418-5.2091 5.0418-4.4582 0 0.16049-2.1375 2.298-4.75 4.75l-4.75 4.4582zm354.85-341.43c0.72187-0.28887 1.5844-0.25335 1.9167 0.0789 0.33229 0.33229-0.25834 0.56864-1.3125 0.52522-1.165-0.048-1.4019-0.28494-0.60417-0.60416z" fill="#dce1e6"/>
  <path d="m657 278.5c1.8658-1.925 3.6173-3.5 3.8923-3.5s-1.0266 1.575-2.8923 3.5-3.6173 3.5-3.8923 3.5 1.0266-1.575 2.8923-3.5z" fill="#d5dbe0"/>
  <path d="m651 284.62c0-0.20765 0.7875-0.99515 1.75-1.75 1.5861-1.2439 1.6214-1.2085 0.37756 0.37756-1.3064 1.6658-2.1276 2.1955-2.1276 1.3724zm11.5-11.622c0.99549-1.1 2.035-2 2.31-2s-0.31449 0.9-1.31 2-2.035 2-2.31 2 0.31449-0.9 1.31-2z" fill="#d1d8dd"/>
  <path d="m23 484.62c0-0.20765 0.7875-0.99515 1.75-1.75 1.5861-1.2439 1.6214-1.2085 0.37756 0.37756-1.3064 1.6658-2.1276 2.1955-2.1276 1.3724zm288.92-93.372-2.4243-2.75 2.75 2.4243c2.5703 2.2659 3.2086 3.0757 2.4243 3.0757-0.17912 0-1.4166-1.2375-2.75-2.75zm753.95-20c-1.2438-1.5861-1.2085-1.6214 0.3776-0.37756 1.6657 1.3064 2.1955 2.1276 1.3724 2.1276-0.2076 0-0.9951-0.7875-1.75-1.75zm-10-11c-1.2438-1.5861-1.2085-1.6214 0.3776-0.37756 1.6657 1.3064 2.1955 2.1276 1.3724 2.1276-0.2076 0-0.9951-0.7875-1.75-1.75zm-24.396-25.5-7.9765-8.25 8.25 7.9765c7.6623 7.4084 8.7059 8.5235 7.9765 8.5235-0.1504 0-3.8629-3.7125-8.25-8.25zm-718.48-15.128c0-0.20765 0.7875-0.99515 1.75-1.75 1.5861-1.2439 1.6214-1.2085 0.37756 0.37756-1.3064 1.6658-2.1276 2.1955-2.1276 1.3724zm693.87-8.3724c-1.2438-1.5861-1.2085-1.6214 0.3776-0.37756 0.9625 0.75485 1.75 1.5424 1.75 1.75 0 0.82304-0.8212 0.29331-2.1276-1.3724zm-358.37-24.25c0.99549-1.1 2.035-2 2.31-2s-0.31449 0.9-1.31 2-2.035 2-2.31 2 0.31449-0.9 1.31-2z" fill="#cbd2d9"/>
  <path d="m461.5 541c0.99549-1.1 2.035-2 2.31-2s-0.31449 0.9-1.31 2-2.035 2-2.31 2 0.31449-0.9 1.31-2zm-426.54-69.25c2.452-2.6125 4.5895-4.75 4.75-4.75 0.75089 0-0.04302 0.89783-4.4582 5.0418l-4.75 4.4582zm1023.9-108.5c-1.2438-1.5861-1.2085-1.6214 0.3776-0.37756 1.6657 1.3064 2.1955 2.1276 1.3724 2.1276-0.2076 0-0.9951-0.7875-1.75-1.75zm-15.926-17-3.4462-3.75 3.75 3.4462c3.4904 3.2076 4.2098 4.0538 3.4462 4.0538-0.1671 0-1.8546-1.6875-3.75-3.75zm-23-23-3.4462-3.75 3.75 3.4462c3.4904 3.2076 4.2098 4.0538 3.4462 4.0538-0.1671 0-1.8546-1.6875-3.75-3.75zm-375.95-31.628c0-0.20765 0.7875-0.99515 1.75-1.75 1.5861-1.2439 1.6214-1.2085 0.37756 0.37756-1.3064 1.6658-2.1276 2.1955-2.1276 1.3724zm24.5-24.622c0.99549-1.1 2.035-2 2.31-2s-0.31449 0.9-1.31 2-2.035 2-2.31 2 0.31449-0.9 1.31-2z" fill="#c4cdd4"/>
  <path d="m378 583.38c-1.375-0.26592-5.915-1.597-10.089-2.958-8.785-2.8645-13.371-6.3218-46.499-35.055-25.282-21.928-35.86-30.596-52.912-43.359-44.884-33.593-84.494-53.78-122.11-62.235-8.5119-1.913-12.742-2.2168-30.388-2.1825-18.952 0.03687-21.24 0.23944-30.304 2.6828-16.731 4.5103-28.286 11.112-43.953 25.113-8.1427 7.2764-22.383 23.19-33.105 36.995-4.324 5.5675-8.0365 10.31-8.25 10.539-0.21347 0.22916-0.38813-115.08-0.38813-256.25v-256.67h1200v546.27l-14.29-20.884c-79.898-116.77-152.96-198.97-224.44-252.53-43.933-32.919-86.763-53.616-128.41-62.052-9.7803-1.9812-14.287-2.2956-32.363-2.2577-17.654 0.037-22.514 0.38267-30.5 2.169-15.519 3.4713-27.675 7.8087-42.507 15.168-24.939 12.373-43.942 26.608-69.579 52.119-34.217 34.05-59.724 67.696-116.65 153.87-27.515 41.652-42.104 62.795-54.6 79.129-30.537 39.917-54.656 61.221-78.792 69.594-7.2758 2.524-23.426 4.028-29.871 2.7816zm-15.855-179.34c21.027-6.4984 34.91-25.433 34.997-47.732 0.0563-14.432-4.6187-25.966-14.549-35.896-9.863-9.863-20.956-14.407-35.169-14.407-28.138 0-49.424 21.534-49.424 50 0 22.719 13.398 41.227 34.798 48.069 7.9261 2.5343 21.087 2.5193 29.347-0.0333z" fill="#c1cad1"/>
 </g>
</svg>
